PathFileType	4	(X/Y/Z)	Patient4_TMGait_0pt4_02_left_03.trc.trc
DataRate	CameraRate	NumFrames	NumMarkers	Units	OrigDataRate	OrigDataStartFrame	OrigNumFrames
74.074074074074	74.074074074074	4	33	mm	74.074074074074	89	       141
Frame#	Time	Sacral			L.Shoulder			Chest			R.Shoulder			Neck			R.ASIS			L.ASIS			R.Thigh.Superior			R.Thigh.Lateral			R.Thigh.Inferior			R.Patella			L.Thigh.Superior			L.Thigh.Lateral			L.Thigh.Inferior			L.Patella			L.Shank.Superior			L.Shank.Lateral			L.Shank.Inferior			R.Shank.Superior			R.Shank.Lateral			R.Shank.Inferior			R.Heel			R.Midfoot.Superior			R.Midfoot.Lateral			R.Toe			L.Heel			L.Midfoot.Lateral			L.Midfoot.Superior			L.Toe			L.Elbow			L.Wrist			R.Elbow			R.Wrist			
		X1	Y1	Z1	X2	Y2	Z2	X3	Y3	Z3	X4	Y4	Z4	X5	Y5	Z5	X6	Y6	Z6	X7	Y7	Z7	X8	Y8	Z8	X9	Y9	Z9	X10	Y10	Z10	X11	Y11	Z11	X12	Y12	Z12	X13	Y13	Z13	X14	Y14	Z14	X15	Y15	Z15	X16	Y16	Z16	X17	Y17	Z17	X18	Y18	Z18	X19	Y19	Z19	X20	Y20	Z20	X21	Y21	Z21	X22	Y22	Z22	X23	Y23	Z23	X24	Y24	Z24	X25	Y25	Z25	X26	Y26	Z26	X27	Y27	Z27	X28	Y28	Z28	X29	Y29	Z29	X30	Y30	Z30	X31	Y31	Z31	X32	Y32	Z32	X33	Y33	Z33	

89	5.108000000000	886.175693817224	993.604042062535	492.578077137129	1052.367519407289	1432.228853507950	309.588936946180	1149.781077474956	1372.246291450187	476.605680706160	1051.534477339944	1439.300285481342	645.323537079299	1020.239172457478	1491.938438083403	464.762814342151	1117.899042568950	946.302126759799	615.444344949858	1109.466832408498	963.890460767208	339.799696758496	1174.527377078764	747.661418473785	586.014061072650	1101.794710601253	633.132550391393	648.030606542369	1183.077481470006	585.539504298967	568.418549551735	1189.514448541903	495.989533155664	574.810925649447	1150.021764065794	740.290267713638	362.678724497118	1065.692320881797	626.640913177644	290.845047048304	1153.751018126264	542.910699273859	346.459633318705	1147.730618375649	458.859476714474	340.221469106275	1083.057157933256	399.044563950826	334.588578103997	945.622636258451	345.532091341400	288.292572117468	941.461861859922	216.500376059516	343.530556088666	1160.440319264884	406.088579480669	584.219103268092	1091.462182149669	304.400354377213	651.918627521398	1129.394651964709	207.560065997052	588.789817466506	994.580829010757	43.444925118594	569.174861298949	1166.241248849320	97.937055326757	598.745026386446	1080.560153790444	37.725508881603	640.978490385335	1288.270867924108	44.979369466895	621.890788790187	759.140993949227	130.898712897120	385.174926765077	820.439700752327	91.885692376488	305.354730696788	922.080798340028	115.278742103243	324.975228882329	1014.056986204423	33.582816260904	299.191735914855	1078.622462575147	1083.275901906420	183.507687921268	1272.174633673849	904.739200417077	189.036005573239	1018.379471343848	1099.186882092513	779.567206312758	1180.598531864861	895.918452246412	770.207949471343	
90	5.121500000000	886.755475961992	993.225927549078	497.190187430198	1050.336626001256	1431.827211081690	312.297398654309	1149.456624502616	1372.503896114248	478.598195701300	1052.556177528928	1439.604885311674	648.031846530169	1019.469644428828	1491.820115039747	467.564435796277	1119.296450582292	946.457655373513	618.355343799547	1108.787924898853	963.645141877522	343.034399448590	1174.283242489268	746.970456305463	589.097574527055	1100.736935270068	632.807965571359	650.986330572740	1181.383268661782	584.800717312096	571.128542709980	1186.943228164857	495.161039308267	577.208299760235	1155.345408628629	742.763457817758	365.311181812116	1075.608713371745	627.392992925434	292.276787613162	1166.243784485594	545.627823682396	347.743214488253	1161.580008047047	460.585128876033	340.798897405113	1095.262779056419	400.586939166284	335.157672911851	955.880181138649	351.841537137310	289.024954947917	947.827500875362	222.785197750627	343.747309687349	1157.428594113691	405.277342534674	586.116197942437	1087.988638942739	303.658431620817	653.346227599769	1124.982485234852	206.916818398046	589.576762616860	989.051430785824	43.385853295957	569.361846220712	1160.790377033235	97.747412817596	599.036731006963	1075.014742640089	37.614433061607	641.226692982080	1282.825137543872	44.572270077994	622.118955702856	762.374614712763	146.542289102814	385.639939163941	821.144296333094	103.680261930297	305.724540324255	924.248912391853	120.490908008161	325.056664412038	1009.839780018472	32.591912212010	299.383724910137	1073.384727951183	1081.961849535137	187.780178154956	1257.586523922554	893.708971422872	188.190658179496	1024.866576023009	1099.977423792738	784.949514771825	1195.401122681330	904.186746539779	772.746125955358	
91	5.135000000000	887.097199122037	992.941580433525	501.598986430709	1048.252341403546	1431.398245721854	314.849631957789	1149.110974163464	1372.681728839406	480.382439441834	1053.681487341643	1439.906517581327	650.573952641181	1018.769929927628	1491.716228663705	470.220651734559	1120.441593878210	946.540840692483	621.028921572923	1107.651451877069	963.231238761262	346.129845038983	1173.751916190972	746.278993544123	591.865133385121	1099.481141593588	632.518620360550	653.791785775624	1179.366302847185	584.069745117618	573.605552597590	1184.052066263157	494.369079943643	579.477321922117	1160.413655989800	745.587552413559	367.749366055426	1085.166245774656	628.593261335436	293.614652709371	1178.259864756809	548.962119057117	348.958922445638	1175.135246353899	463.028311030379	341.535079737279	1107.440353539127	402.688757534095	335.872980462565	966.382778057995	358.348061891475	289.872012156711	954.767304919583	229.364579723632	344.274470650422	1154.161137221885	404.513975561905	587.925229883455	1084.277378603600	302.949917679385	654.696075908570	1120.423085154319	206.316798072240	590.333090124578	983.477871627535	43.325078119455	569.567113606962	1155.287232335844	97.559258777422	599.311115758362	1069.431721258883	37.504448151619	641.467245864550	1277.328344612703	44.202746515094	622.322312515343	766.722392286683	162.064274754518	386.485972557683	822.940026267966	115.817571783865	306.369165687057	927.222663722455	126.250192397823	325.472414052322	1006.539969605390	31.779102401902	299.572547380524	1068.205373799409	1080.690212429759	191.908767147615	1242.178825422133	883.044111076888	187.646097809602	1031.516981950596	1100.917064692348	790.143733948803	1210.204104667510	913.184720944604	774.887867219096	
92	5.148500000000	887.213853060158	992.798820818490	505.761621517710	1046.166032766585	1431.005468306065	317.238300107690	1148.753939184958	1372.824458938890	481.964919652037	1054.887845347270	1440.246278638892	652.937433030976	1018.157820143879	1491.676704386907	472.717529861913	1121.334598664127	946.591622155747	623.474246271023	1106.173422154476	962.755567442713	349.045608686156	1172.964491287551	745.624145402732	594.324658874619	1098.005070358032	632.283145701604	656.391199542743	1177.053041453580	583.369849145461	575.837444116070	1180.851690591098	493.639666400693	581.561946643480	1165.094325733159	748.765624393984	370.013559361483	1094.117163621318	630.256344914440	294.896884071938	1189.574497065150	552.904474129775	350.071610847069	1188.157852400220	466.175652844666	342.355019551828	1119.355245702835	405.350671806661	336.690385863724	976.884179526860	364.895600491314	290.860375537983	962.202289066718	236.015781944065	345.083623515691	1150.652475217444	403.830967313722	589.599799176465	1080.352768978840	302.312788936674	655.936919783063	1115.747548703519	205.790269802255	591.038394739945	977.901014950937	43.275757807373	569.780924507458	1149.771409512724	97.392301036499	599.566934767292	1063.849728671587	37.409240239912	641.693221553326	1271.815276980890	43.888015190735	622.506026272804	772.149137347026	176.758545664919	387.725493440318	825.933547781571	127.714921975465	307.298832684715	931.112849818918	132.332477178263	326.179700625723	1004.597767712712	31.286055407338	299.724711313759	1063.002806301274	1079.522437430355	195.862382236777	1226.049925128003	872.975144996635	187.476046610785	1038.377041959649	1102.020417246583	795.074953968793	1224.949695160104	922.887473672967	776.573367234360	
